<?xml version="1.0" encoding="utf-8"?>
<!-- Generator: Adobe Illustrator 17.0.0, SVG Export Plug-In . SVG Version: 6.00 Build 0)  -->
<!DOCTYPE svg PUBLIC "-//W3C//DTD SVG 1.1//EN" "http://www.w3.org/Graphics/SVG/1.1/DTD/svg11.dtd">
<svg version="1.1" id="Layer_1" xmlns="http://www.w3.org/2000/svg" xmlns:xlink="http://www.w3.org/1999/xlink" x="0px" y="0px"
	 width="848px" height="814px" viewBox="92.327 28.327 848 814" enable-background="new 92.327 28.327 848 814"
	 xml:space="preserve">
<g>
	<rect x="413.453" y="282.278" fill="none" width="538.583" height="538.583"/>
	<g>
		<polygon fill="#2062AF" points="818.953,749.731 682.743,786.408 546.531,749.731 515.099,409.207 850.389,409.207 		"/>
		<polygon fill="#3C9CD7" points="682.742,436.789 682.742,757.156 683.049,757.239 793.278,727.558 818.721,436.789 		"/>
		<g>
			<polygon points="605.438,359.177 605.438,338.909 635.009,338.909 635.009,316.731 583.26,316.731 583.26,379.415 
				635.009,379.415 635.009,359.177 			"/>
			<path d="M688.204,338.909h20.673v-22.178h-51.753c0,0,0,11.132,0,22.178c6.923,6.924,10.535,10.238,20.548,20.252
				c-5.853,0-20.548,0.021-20.548,0.02v20.234h51.753v-20.238L688.204,338.909z"/>
			<path d="M761.556,338.909h20.673v-22.178h-51.756c0,0,0,11.132,0,22.178c6.924,6.924,10.537,10.238,20.551,20.252
				c-5.852,0-20.551,0.021-20.551,0.02v20.234h51.757v-20.238L761.556,338.909z"/>
		</g>
		<g>
			<polygon fill="#FFFFFF" points="682.621,521.934 585.13,562.537 588.364,602.735 682.621,562.434 782.885,519.567 
				787.043,478.445 			"/>
			
				<linearGradient id="SVGID_1_" gradientUnits="userSpaceOnUse" x1="539.8755" y1="41.9191" x2="539.8755" y2="122.7201" gradientTransform="matrix(1 0 0 -1 94 644.6541)">
				<stop  offset="0.3865" style="stop-color:#D1D3D4;stop-opacity:0"/>
				<stop  offset="1" style="stop-color:#D1D3D4"/>
			</linearGradient>
			<polygon fill="url(#SVGID_1_)" points="585.13,562.537 588.364,602.735 682.621,562.434 682.621,521.934 			"/>
			
				<linearGradient id="SVGID_2_" gradientUnits="userSpaceOnUse" x1="640.832" y1="82.2201" x2="640.832" y2="166.2091" gradientTransform="matrix(1 0 0 -1 94 644.6541)">
				<stop  offset="0.3865" style="stop-color:#D1D3D4;stop-opacity:0"/>
				<stop  offset="1" style="stop-color:#D1D3D4"/>
			</linearGradient>
			<polygon fill="url(#SVGID_2_)" points="787.043,478.445 682.621,521.934 682.621,562.434 782.885,519.567 			"/>
			
				<linearGradient id="SVGID_3_" gradientUnits="userSpaceOnUse" x1="491.28" y1="5.8801" x2="685.3441" y2="5.8801" gradientTransform="matrix(1 0 0 -1 94 644.6541)">
				<stop  offset="0" style="stop-color:#E8E7E5"/>
				<stop  offset="1" style="stop-color:#FFFFFF"/>
			</linearGradient>
			<polygon fill="url(#SVGID_3_)" points="585.28,562.537 588.514,602.735 733.139,603.197 729.904,656.794 682.314,670.193 
				636.566,658.642 633.794,625.375 591.286,625.375 596.831,689.599 682.776,715.011 768.254,690.06 779.344,562.537 			"/>
			<g opacity="0.05">
				<polygon points="682.621,562.537 585.13,562.537 588.364,602.735 682.621,603.036 				"/>
				<polygon points="682.621,670.063 682.159,670.193 636.417,658.642 633.644,625.375 591.137,625.375 596.681,689.599 
					682.621,715.011 				"/>
			</g>
			
				<linearGradient id="SVGID_4_" gradientUnits="userSpaceOnUse" x1="482.351" y1="145.6481" x2="693.043" y2="145.6481" gradientTransform="matrix(1 0 0 -1 94 644.6541)">
				<stop  offset="0" style="stop-color:#E8E7E5"/>
				<stop  offset="1" style="stop-color:#FFFFFF"/>
			</linearGradient>
			<polygon fill="url(#SVGID_4_)" points="576.351,478.445 787.043,478.445 782.885,519.567 581.433,519.567 			"/>
			<polygon opacity="0.05" enable-background="new    " points="682.621,478.445 576.351,478.445 581.433,519.567 682.621,519.567 
							"/>
		</g>
	</g>
</g>
<g>
	<polygon fill="#E44D26" points="214.644,632.304 178.538,227.335 575.278,227.335 539.134,632.24 376.665,677.282 	"/>
	<polygon fill="#F16529" points="376.908,642.854 508.191,606.457 539.078,260.447 376.908,260.447 	"/>
	<polygon fill="#EBEBEB" points="376.908,410.645 311.185,410.645 306.645,359.784 376.908,359.784 376.908,310.116 
		376.736,310.116 252.365,310.116 253.554,323.441 265.761,460.312 376.908,460.312 	"/>
	<polygon fill="#EBEBEB" points="376.908,539.638 376.69,539.695 321.375,524.759 317.839,485.147 290.96,485.147 267.98,485.147 
		274.939,563.133 376.679,591.376 376.908,591.312 	"/>
	<path d="M215.451,117.283h25.24v24.938h23.089v-24.938h25.242v75.517h-25.24v-25.288h-23.089v25.288h-25.24v-75.517H215.451z"/>
	<path d="M322.214,142.324h-22.221v-25.042h69.694v25.042h-22.23v50.474h-25.242L322.214,142.324L322.214,142.324z"/>
	<path d="M380.748,117.283h26.319l16.19,26.534l16.173-26.534h26.329v75.517h-25.137v-37.43l-17.365,26.85h-0.434l-17.378-26.85
		v37.43h-24.697V117.283z"/>
	<path d="M478.32,117.283h25.248v50.555h35.495v24.962h-60.744v-75.517H478.32z"/>
	<polygon fill="#FFFFFF" points="376.736,410.645 376.736,460.312 437.897,460.312 432.131,524.727 376.736,539.678 
		376.736,591.352 478.558,563.133 479.305,554.74 490.976,423.983 492.188,410.645 478.804,410.645 	"/>
	<polygon fill="#FFFFFF" points="376.736,310.116 376.736,340.965 376.736,359.663 376.736,359.784 496.548,359.784 
		496.548,359.784 496.708,359.784 497.704,348.62 499.967,323.441 501.155,310.116 	"/>
</g>
</svg>
